<?xml version="1.0" standalone="yes"?>
<svg width="433" height="577">
<path style="fill:#000000; stroke:none;" d="M0 0L0 396L1 396C3.99682 388.862 10.564 384.368 14.7508 378C19.0367 371.481 20.4285 363.263 25.6127 357.189C28.4825 353.827 33.5815 353.372 36.0154 349.772C41.5463 341.593 42.7533 329.698 53.0147 325.089C66.7055 318.939 80.2013 319.176 94 315.211C104.765 312.117 115.501 305.599 126 301.4C141.152 295.339 152.763 291.701 161.408 277C163.87 272.814 161.607 268.251 160.36 264C158.361 257.188 153.982 251.486 151.233 245C148.833 239.337 148.014 232.448 144.722 227.213C142.691 223.983 138.445 222.941 137.473 218.957C136.618 215.455 137.867 211.637 137.188 208C135.223 197.459 130.483 183.698 133.573 173.001C135.08 167.78 141.478 166.798 142.598 161.942C143.837 156.568 141.148 150.428 141.015 145C140.63 129.331 140.327 113.617 140.015 98C139.842 89.2885 145.515 80.968 145 73C151.931 69.6127 152.852 62.5839 156.666 56.5756C160.55 50.457 166.169 46.0854 172 41.9244C179.951 36.2505 195.351 30.1151 204.91 28.1435C210.172 27.0583 214.829 28.1818 220 26C221.082 28.7535 223.575 29.5099 224 26L225 26L232 27C233.857 29.4919 236.627 30.2484 239 28L253 31L261 34L276 44L275 48L276 48L276 46L277 46C281.003 63.082 299.219 75.2162 304.107 92C309.819 111.614 304.882 131.274 304.26 151C303.88 163.046 306.982 174.898 305.83 187C303.62 210.221 301.589 230.84 290.741 252C286.759 259.768 273.035 273.932 275.715 283C278.641 292.906 290.638 297.817 299 302.219C318.858 312.672 341.823 315.894 363 322.28C369.58 324.264 380.618 325.592 385.96 329.573C393.59 335.26 393.479 344.243 397.568 351.896C401.061 358.434 408.58 361.124 404.991 370C401.438 378.785 387.818 383.355 390 394L394 392C400.045 384.959 408.465 379.657 411 370C417.896 379.319 422.642 400.582 433 406L433 0L0 0z"/>
<path style="fill:#6a4f46; stroke:none;" d="M169 46L178 50L179 45L176 44L176 43L181 41C183.982 45.2598 190.289 43.9679 193 40L186 39L186 38L205 38L204 36L205 36L212 37L212 36L205 34L205 33L218 34L218 33L216 33L216 32L253 35L253 31L239 28C236.417 29.8199 234.13 29.1594 232 27L225 26L224 26L223 29L220 26C204.322 30.9699 179.248 30.5404 169 46z"/>
<path style="fill:#6c4e43; stroke:none;" d="M221.667 26.3333L222.333 26.6667L221.667 26.3333z"/>
<path style="fill:#000000; stroke:none;" d="M217.667 28.3333L218.333 28.6667L217.667 28.3333z"/>
<path style="fill:#392824; stroke:none;" d="M216 32L216 33L218 33L218 34L211 34L211 35L217 35L217 36L215 37L219 38L219 39L203 39L203 40L206 40L206 41L186 38L186 39L193 40C189.548 43.3381 184.582 44.8217 181 41L176 43L176 44L179 45L177 48L179 51L185 55L180 54L181 57C175.367 54.6232 168.89 54.3272 163 56L165 51C159.959 53.9919 157.002 61.3778 156 67L158 65L159 65L161 67L159 71L159 72L157 80L154 79C152.762 82.8772 146.473 92.8097 152 94L152 95L150 97L143 97L143 109L144 109L145 106L149 107L155 105C159.477 100.028 162.876 94.192 168.09 89.8889C186.429 74.7523 215.293 65.8256 238 61L238 60C229.188 58.0494 218.145 61.9311 210 65L209 63L208 59L218.823 50.7724L236 41L237 41L250 48L247 45L247 44L259 46L257 43L257 42L259 39L263 40L262 43C271.445 52.2799 277.64 69.6189 291 74L295 91L298 101L295 99L302.239 119L304 145L305 145C309.02 131.404 307.559 114.717 305.093 101C304.35 96.8669 305.193 92.9375 303.326 89C296.215 73.9962 282.873 61.6037 277 46L276 46L276 48L275 48L276 44L261 34L253 35L216 32z"/>
<path style="fill:#533d36; stroke:none;" d="M205 33L205 34L212 36L212 37L204 36L205 38L203 36L196 38L196 39L206 41L206 40L203 40L203 39L219 39L219 38L217 36L217 35L211 35L212 33L205 33z"/>
<path style="fill:#151212; stroke:none;" d="M259 39L257 42L257 43L259 46L247 44L247 45L250 48L237 41L236 41L208 59L209 63L211 63L210 65L239 59L250 61.7292L269.816 68.0031L298 101L295 91L291 74L262 43L263 40L259 39z"/>
<path style="fill:#524642; stroke:none;" d="M145 73L140 89L143 90L147 80L151 80L153 69L165 51L163 56L176 53L166 54L166 53L179 52L177 56L181 57L180 54L185 55L179 51L179 48L169 46L171 43C156.815 49.3137 156.355 64.6172 145 73z"/>
<path style="fill:#886356; stroke:none;" d="M166 53L166 54L177 55L179 52L166 53z"/>
<path style="fill:#533d36; stroke:none;" d="M238 59L237 62C227.642 59.5287 214.562 66.2261 206 70L206 71L225 65.7955L259 65L259 64L238 59z"/>
<path style="fill:#392824; stroke:none;" d="M251 62L251 63L275 73C270.251 64.5703 259.96 62.3846 251 62z"/>
<path style="fill:#7d5b4f; stroke:none;" d="M190 79L231 68L248 65L258.715 68.7245L284 82L277 73C271.038 71.6327 266.55 67.0865 260.715 65.4707C244.435 60.9632 224.578 64.8975 209 70.1111C203.021 72.1124 193.436 73.3223 190 79z"/>
<path style="fill:#3d3535; stroke:none;" d="M158 65L153 69L151 80L147 80L143 90L141 89C134.677 110.393 143.251 137.868 142 160L146 161L149 107L145 106L144 109L143 109L143 97L150 97L152 95L152 94L149 94L154 79L157 80L157 77C159.187 75.5919 161.117 74.2126 159 72L159 71L161 67L158 65z"/>
<path style="fill:#b39184; stroke:none;" d="M231 68L222 68L222 69L259 71.2901L275 81L287 99L290 101L290 108L290 109C293.629 110.759 293.59 113.238 293 117L295 117L295 124L293 132L285 130C289.285 135.299 295.727 133.287 297 142L272.039 145.05L259 150L257 154C264.838 156.112 279.305 157.253 287 155L288 158C293.591 158.583 296.72 164.725 293.058 169.683C291.142 172.276 287.298 172.642 285 175L284 175L274 174L275 179L274 179L273 177C265.984 182.321 254.156 179.414 247 176L249 183L264 186L276 180L278 184L281 181C286.213 185.809 298.067 188.301 302 181L303 181L305 185L303 191C310.216 186.322 305.302 161.819 304.615 154C302.733 132.59 303.488 98.6624 284.96 83.3904C277.872 77.548 267.225 71.8459 258.715 68.3287C255.042 66.8111 251.21 67.4351 248 65L231 68z"/>
<path style="fill:#cc9984; stroke:none;" d="M185 82L185 83C195.053 80.4933 207.697 77.095 218 79L218 77L230 79L237 79L243 83L245 82L247 87L251 86L252 89L255 87L264.226 93.9375L266 106L267 106L268 104L272 113C276.59 115.07 281.487 117.945 283 123L285 123L285 128L281 126L282 129L266 134L266 135L284 133L285 130L293 132C294.88 128.24 299.639 124.928 295 124L295 117L293 117C294.104 113.266 294.177 110.12 290 109L290 108L292 107L290 101L287 99C287.751 91.6086 279.412 86.029 275 81C267.536 79.6171 261.403 71.3468 253 69.1288C233.463 63.972 201.335 70.5868 185 82z"/>
<path style="fill:#dbac94; stroke:none;" d="M218 77L219 81L227 79L229 80L232 82L232 89L238 87L238 90L241 87C240.286 90.0942 240.54 92.4507 244 93L244 94L242 96L245 96L248 99L250 94L253 98L252 98L252 96L251 96L255 110L260 108L266 109L270 114L270 115L268 117C271.189 116.662 274.104 116.509 275 120C278.62 123.309 280.347 131.03 273 129L272 129C266.351 131.831 256.559 134.741 251 131L244 136L244 134L243 134L243 136L242 136L242 134L241 134L237 134L234 141L230 134L229 134L229 136L228 136L230 133L230 132L226 130L223 131L222 136L213 139L213 140L222 141L224 144L226 141L224 162L235 163L235 170L239 164L236 163L238 161L238 160L234 155C236.263 142.533 247.324 143.306 256 136L256 139L282 129L281 126L285 128L285 123L283 123C282.048 117.451 277.093 114.616 272 113C273.212 109.363 267.837 101.813 267 106L266 106C266.882 92.8312 261.838 95.582 255 87L252 89L251 86L247 87L245 82L243 83C241.782 80.6154 239.779 77.2218 237 79L230 79L218 77z"/>
<path style="fill:#deb6a8; stroke:none;" d="M183 85L212 84L217 80L216 86L217 86L218 84C220.434 86.4402 222.683 83.7883 225 82L228 87L225 86L229 88L235 101L237 105L236 102L239 100L242 103L242 101C243.919 103.39 243.88 108.166 247 106C249.334 110.96 253.318 114.65 259 114L261 115L262 119L263 119C264.551 117.194 264.863 116.837 266 119L271 118L269 125L267 123L262 128L262 124L261 124L261 128L260 128L259 126L258 130L257 130L253 124L250 125L252 119L248 121L244 129L243 129L243 125L242 125L241 128L241 124L239 125L239 124L238 120L238 126L237 126L236 118L235 118L235 123L227 125L229 122L223 122L223 126L217 132L217 137L215 135C210.361 138.458 206.436 137.424 201 137L201 138C208.269 139.731 215.409 139.626 222 136L223 131L226 130L230 132L230 133L228 136L229 136L229 134L230 134L232 136L234 141L237 134L241 134L242 134L242 136L243 136L243 134L244 134L244 136L251 131C255.829 134.911 267.14 132.463 272 129L273 129C277.749 133.183 280.817 123.523 275 120C274.185 116.2 271.473 116.36 268 117L270 115L270 114L266 109L260 108L255 110L251 96L252 96L252 98L253 98L250 94L248 99L245 96L243 97L242 96L244 94L244 93L241 92L241 87L238 90L238 87L232 89L232 82L229 80L227 79L220 81C212.827 76.2655 188.794 77.7941 183 85z"/>
<path style="fill:#7d5b4f; stroke:none;" d="M155 105C149.525 101.655 147.952 109.341 147.553 113.715C146.406 126.298 147 140.291 147 153L148 153C148.03 142.106 147.068 125.418 150.559 115.17C156.059 99.0256 173.803 88.1868 188 81C175.159 77.4768 160.825 96.0825 155 105z"/>
<path style="fill:#eec3ad; stroke:none;" d="M212 84C202.268 84.5342 195.025 81.184 185 84.4676C154.572 94.4341 147.078 132.653 147 161L157 163L157 164L147 165L152 175L147 171L146 171L145.562 192.83L161 211L163 209L169 211L172 221L173 221L174 218L180 224L185 215L187 217L195 212L198 207L196 208C201.717 202.907 207.776 193.846 216 193L221 181L218 182L217 179C211.129 180.385 203.831 184.483 198.039 184.654C184.475 185.057 167.69 172.76 157 166L158 163L161 164C154.834 152.912 161.801 139.347 174 134.796C180.132 132.509 186.692 133.117 193 132C196.489 143.102 212.359 133.519 217 137L217 132L223 126L223 122L229 122L227 125L235 123L235 118L236 118L237 126L238 126L238 120L239 125L241 124L241 128L242 125L243 125L243 129L244 129L248 121L252 119L250 125L253 124L257 130L258 130L259 126L260 128L261 128L261 124L262 124L262 128L267 123L269 125L271 118L266 119L265 116L264 116L263 119L262 119L261 115L259 114C253.451 113.673 250.118 110.387 247 106L245 108L242 101L242 103L239 100L236 102L237 105L235 101L229 88L225 86L228 87L225 82L217 86L216 86L217 80L212 84z"/>
<path style="fill:#a87763; stroke:none;" d="M159 104L183 84C173.844 85.3959 161.807 95.2152 159 104z"/>
<path style="fill:#61473f; stroke:none;" d="M292.333 93.6667L292.667 94.3333L292.333 93.6667z"/>
<path style="fill:#000000; stroke:none;" d="M303 93L303 96L304 96L303 93z"/>
<path style="fill:#cc9984; stroke:none;" d="M156 105C150.839 113.849 149.219 128.73 149 139L150 139L158 105L156 105z"/>
<path style="fill:#996a59; stroke:none;" d="M150 113L149 133L150 133L152 113L150 113z"/>
<path style="fill:#6f5247; stroke:none;" d="M300 113L302 127L303 127L300 113z"/>
<path style="fill:#7b797b; stroke:none;" d="M303 130L303 143L304 143L303 130z"/>
<path style="fill:#7d5b4f; stroke:none;" d="M284 131L284 135L262 139L262 140L292 138L292 141C285.844 141.67 277.964 139.175 274 145L297 142C296.396 133.693 290.948 132.953 284 131z"/>
<path style="fill:#c39281; stroke:none;" d="M160 162L166 141C170.662 139.975 174.402 135.938 179.004 135.528C189.192 134.619 200.057 139.178 210 141.04C218.151 142.566 225.814 148.887 218 156L218 161L226 163L226 162L228.525 150.081L226 141L224 144L222 141C214.677 143.006 197.967 137.779 193 132C180.348 133.064 159.553 135.049 158.718 152C158.536 155.688 156.793 159.544 160 162z"/>
<path style="fill:#9d7a6f; stroke:none;" d="M246 148L247 148C254.574 138.954 272.645 135.001 284 135C275.887 127.653 248.883 138.034 246 148M172 140L176 138L177 138L199 140C192.775 134.932 176.684 132.178 172 140z"/>
<path style="fill:#c39281; stroke:none;" d="M255 136C246.789 143.479 235.133 142.184 234 155L240 161L240 162L236 162L236 163L239 164L240 175L241 175L244 172L243 163L254 164L253 161L246 162L245 161L248 156C237.403 146.366 258.392 142.667 255 136z"/>
<path style="fill:#392824; stroke:none;" d="M251 149L292 141L292 138C281.76 136.678 253.432 134.494 251 149z"/>
<path style="fill:#7d5b4f; stroke:none;" d="M176 138L168 145L169 147L178 147L178 146L173 144L173 142L176 138z"/>
<path style="fill:#61473f; stroke:none;" d="M173 142L173 144C181.089 147.115 189.49 147.584 195 155C185.506 155 170.243 154.716 167 166C170.757 166.817 174.421 167.188 177 164L174 165C177.688 158.341 191.401 154.482 196 162L192 160L192 166L181 161C184.113 169.901 195.623 174.317 197 162L206 169L210 169L207 163L214 164C215.035 157.368 212.447 154.898 206 154L206 151C213.389 150.035 214.825 144.132 206.985 141.728C195.937 138.342 183.687 137.454 173 142z"/>
<path style="fill:#ab8476; stroke:none;" d="M166 141C165.76 144.978 162.965 145.853 161.613 149.245C159.34 154.95 160.654 161.701 163 167L164 167L163 156L195 155C190.028 144.891 178.334 146.974 169 147L168 145L171 140L166 141z"/>
<path style="fill:#917065; stroke:none;" d="M199 140L199 141L207 141L199 140z"/>
<path style="fill:#9d7a6f; stroke:none;" d="M207 141L207 142L214 145L215 142L207 141z"/>
<path style="fill:#392824; stroke:none;" d="M184 142L184 143L208 149L209 148L209 146L184 142z"/>
<path style="fill:#7d5b4f; stroke:none;" d="M215 143C212.458 147.576 211.279 149.667 206 151L206 154C210.674 155.028 213.184 156.462 215 161L219 160L215 155C221.331 152.899 218.377 146.704 215 143z"/>
<path style="fill:#917065; stroke:none;" d="M216 143C217.621 147.854 220.684 151.864 215 155L219 159L218 156C224.36 152.081 222.206 145.542 216 143z"/>
<path style="fill:#886356; stroke:none;" d="M248 156L245 161L246 162L251 162C252.646 156.61 260.16 156.615 265 156L265 155L257 154L259 150L268 146L251 149L253 143C247.576 145.132 240.599 151.662 248 156z"/>
<path style="fill:#917065; stroke:none;" d="M163 156L166 168C164.783 161.387 168.336 160.419 174 159C170.803 155.701 167.445 155.529 163 156z"/>
<path style="fill:#61473f; stroke:none;" d="M250 161L254 162L253 166C255.926 165.757 259.793 165.455 258 162L265 160L264 157L269 156C263.659 154.089 253.762 156.929 250 161z"/>
<path style="fill:#7d5b4f; stroke:none;" d="M264 159C274.098 157.724 281.528 158.028 288 167L281 163L281 171L291 169C290.712 157.098 272.133 148.584 264 159z"/>
<path style="fill:#917065; stroke:none;" d="M283 156L283 157C288.199 159.721 290.678 163.117 291 169L281 171C280.597 167.712 277.987 168.272 275 168C269.647 172.054 264.453 169.039 263 163C259.199 164.265 259.232 166.312 260 170L249 170L250 174L247 173C247 183.249 262.673 179.832 266 179C270.063 177.984 273.859 178.436 274 179L275 179L274 174L284 175L285 175C287.308 173.33 291.24 172.488 293.062 170.401C297.2 165.661 294.378 157.368 288 158L287 155L283 156M146 157L146 161L143 161L146 169L146 164L157 164L157 163L147 161L146 157z"/>
<path style="fill:#392824; stroke:none;" d="M174 165L193 159C187.008 156.486 176.253 158.241 174 165z"/>
<path style="fill:#423d3c; stroke:none;" d="M267 158L267 159L276 159L276 160L271 160C271.135 164.134 269.422 166.194 266 163C262.233 167.048 265.371 169.634 270 170L269 167L277 161L288 167C283.813 158.231 275.57 158 267 158z"/>
<path style="fill:#1c1a1c; stroke:none;" d="M183 160L192 166L192 160L196 162C194.953 157.116 186.727 158.638 183 160z"/>
<path style="fill:#262425; stroke:none;" d="M258 162L258 163L264 165L265 163L266 163C268.984 167.561 271.73 164.338 271 160L276 160C270.071 157.512 263.673 159.815 258 162z"/>
<path style="fill:#7d5b4f; stroke:none;" d="M182 162L167 166L170 160C166.573 160.595 162.728 164.848 166.743 167.958C171.158 171.378 179.629 165.6 182 162z"/>
<path style="fill:#a5a2a4; stroke:none;" d="M214 161C214.978 165.562 219.375 163.381 223 163L214 161z"/>
<path style="fill:#dcdada; stroke:none;" d="M217 161L217 162L222 162L217 161z"/>
<path style="fill:#9d7a6f; stroke:none;" d="M228 161L228 162L235 162L228 161z"/>
<path style="fill:#f3f0ee; stroke:none;" d="M236 161L236 162L240 162L236 161z"/>
<path style="fill:#525053; stroke:none;" d="M277 161L269 167C273.521 173.272 276.804 165.384 280 162L277 161z"/>
<path style="fill:#9d7a6f; stroke:none;" d="M197 162C194.152 176.068 186.891 164.501 180.08 164.867C175.989 165.086 171.409 168.406 167 169L167 170L179 172C181.728 180.3 195.884 179.761 203 179L202 181L221 171L223 163L207 163L210 169L206 169C205.084 164.759 200.928 163.164 197 162z"/>
<path style="fill:#928e8f; stroke:none;" d="M278 162L277 169L282 167L281 162L278 162z"/>
<path style="fill:#c39281; stroke:none;" d="M158 163L157 166C165.897 174.094 185.475 185.17 198.039 184.84C203.583 184.695 211.763 181.041 217 179L218 182L222 178L219 176L218 176L218 171L202 181L203 179C195.2 179.34 183.297 179.871 179 172C172.238 171.561 165.342 169.143 162 163L158 163z"/>
<path style="fill:#deb6a8; stroke:none;" d="M220 175L221 175L222 167L225 175L227 176L232 176L235 174L237 178L238 189L235 190C235.85 194.376 237.675 200.045 233.685 203.521C230.6 206.209 226.548 205.421 224 209L249 209L245 205L245 204L247 203C243.477 197.144 244.056 189.623 245 183L235 170L235 163C224.894 163 220.874 164.034 220 175z"/>
<path style="fill:#7d5b4f; stroke:none;" d="M243 163L250 174L249 170L260 170L259 165L243 163z"/>
<path style="fill:#cc9984; stroke:none;" d="M142 164L140 168L145 176L146 176L146 171L147 171L152 175L148 164L146 169L142 164z"/>
<path style="fill:#d4ab9e; stroke:none;" d="M244 165C244.137 181.346 250.133 192.446 260 205C256.999 205.6 257.2 212.44 260 213L260 214L258 215L257 229L264 232L264 236L266 235L277 245L281 245L281 242L282 242C294.291 243.733 302.703 213.12 303.999 204C304.585 199.877 306.478 194.039 303 191L305 185L303 181L302 181C296.506 187.692 287.359 185.367 281 181L278 184L276 180C271.578 180.633 265.481 181.432 264 186C258.795 183.994 254.532 180.693 249 183L244 165z"/>
<path style="fill:#eec3ad; stroke:none;" d="M134 172L144 175L140 166L134 172z"/>
<path style="fill:#c39281; stroke:none;" d="M222 167L224 176L224 167L222 167z"/>
<path style="fill:#b5816c; stroke:none;" d="M135 171L138 197L139 197C139.735 191.218 139.568 182.173 145 179L145 173L144 173L137 188L137 171L135 171z"/>
<path style="fill:#996a59; stroke:none;" d="M137 171L137 188C142.004 184.179 142.547 174.122 137 171z"/>
<path style="fill:#676466; stroke:none;" d="M218 171L218 176L219 176L220 171L218 171z"/>
<path style="fill:#cc9984; stroke:none;" d="M133 172L135 202L136 202L138 200L144 209L143 205C148.977 210.138 154.934 220.158 155 228L158 228L157 234L160 237L161 237L162 234L167 239L167 241L169 240L170 244L174 249L184 248L183 252L189 252C191.164 246.055 194.724 239.887 200 236.188C207.029 231.261 215.684 230.659 218 221L207 217L207 200L211 198L212 203L213 203L223 181L216 193C206.564 193.197 190.93 213.186 199 221L201 217L202 217L204 221C209.373 221.157 210.089 225.505 209 230L194 234L191 240L187 239L186 239L185 242L182 237L179 239C178.602 235.903 176.565 235.536 174 237L167 231L161 223C155.872 221.383 153.642 212.746 152 208L150 209C145.548 198.74 144.595 190.261 145 179C139.261 181.018 139.424 191.635 139 197L138 197L135 172L133 172z"/>
<path style="fill:#7d5b4f; stroke:none;" d="M241 172L243 179L245 172L241 172M221 173L220 179L223 173L221 173z"/>
<path style="fill:#f5cab3; stroke:none;" d="M226 174L221 181C224.12 188.272 215.248 199.206 213 206C224.356 204.69 241.885 208.553 235 190L238 189L237 178L235 174L232 176C230.641 173.517 229.149 174.612 227 176L226 174z"/>
<path style="fill:#a87763; stroke:none;" d="M245 175L243 181L245 175z"/>
<path style="fill:#c39281; stroke:none;" d="M245 178L243 183L245 204L245 205L249 209L233.086 211.444L212 208L211 205L210 205L210 213L211 213C218.244 205.693 224.471 213.101 232.91 213.721C238.45 214.128 243.344 211.449 249 212C249.049 216.556 248.731 218.812 244 220C247.385 226.996 252.503 231.947 260 234L259 238C269.516 238.8 266.01 249.298 272 255L277 247L285 243L285 242L281 242L281 245L280 245L277 245L266 235L264 236L264 232L257 229L260 214L260 213C258.051 210.589 257.894 207.339 260 205L245 178z"/>
<path style="fill:#fedcca; stroke:none;" d="M223 201L231 202L229 179C221.625 181.44 224.489 194.747 223 201z"/>
<path style="fill:#e2b49c; stroke:none;" d="M145 194L150 209L152 208C153.194 212.982 155.523 221.889 161 223C161.765 225.222 164.647 234.473 167 231L174 237L176 235L179 239L182 237C182.722 239.495 185.422 243.769 186 239L187 239L188 241L191 240L194 234L209 230C210.534 225.26 209.71 220.789 204 221L202 217L201 217L199 221C194.953 214.824 199.665 211.317 201 205L196 208L198 207L198 208L195 212L185 215L180 224L174 218L173 221L172 221L169 211L161 211L145 194z"/>
<path style="fill:#a87763; stroke:none;" d="M210 198L207 200L207 217L214 219L221 209C216.802 208.189 213.386 209.361 211 213L210 213L210 198z"/>
<path style="fill:#e2b49c; stroke:none;" d="M216 198L212 208L222 207L222 206L213 206L216 198z"/>
<path style="fill:#eec3ad; stroke:none;" d="M136 200L137 221C144.837 220.566 144 215.562 144 209L138 200L136 200z"/>
<path style="fill:#a87763; stroke:none;" d="M143 205L144 222L140 222L146 226L145 223L154 233L157 246L162 244C163.962 247.426 165.9 250.104 170 250L169 247L173 246L170 244L167 241L167 239L165 240L162 234L161 237L160 237L157 234L158 228L155 228C154.975 218.935 149.414 212.764 145 205L143 205z"/>
<path style="fill:#2d1e1b; stroke:none;" d="M218 210C218.719 219.229 225.937 211.378 218 210z"/>
<path style="fill:#917065; stroke:none;" d="M216 211L214 221L218 224L224 223L225 224L224 226L234 227C238.532 219.626 249.524 223.238 249 212L239 216L240 213L222 211C221.801 215.538 219.162 214.749 218 211L216 211z"/>
<path style="fill:#2d1e1b; stroke:none;" d="M239 216C242.834 215.563 244.602 214.657 246 211L239 216z"/>
<path style="fill:#60514e; stroke:none;" d="M302 211L293 243C298.884 239.039 300.475 228.413 303 222L301 223L301 222L302 211z"/>
<path style="fill:#7d5b4f; stroke:none;" d="M208 213L211 216L210 213L208 213z"/>
<path style="fill:#af8c7e; stroke:none;" d="M302 216L301 223C303.477 220.549 304.087 218.913 302 216z"/>
<path style="fill:#c39281; stroke:none;" d="M138 223L144 220L138 223z"/>
<path style="fill:#886356; stroke:none;" d="M243 220L241 222L246 239L229 237L223 236L222 236L215 238L218 227C214.153 227.785 211.934 228.894 212 233L211 234L197 239C194.534 243.139 191.75 258.304 185.098 256.157C180.216 254.58 180.024 249.459 174 249L174 246L169 247L170 250L167 251L162 244L157 246L154 233L145 223C146.091 237.799 153.909 249.896 160 263L162 262C165.027 268.751 169.434 279.299 176 283L174 278C182.351 277.744 186.754 278.869 194 274L193 277C198.603 277.87 201.317 281.82 203 287L213 290L220 294L221 294L227 291L228 294L245 287L245 283L252 283L255 278L256 282L257 282L258 274L259 274L265 279L264 275L272 277L287 251L284 250L283 256L282 256L281 253L267 263C268.274 254.24 271.353 238.404 259 238L260 234L243 220z"/>
<path style="fill:#61473f; stroke:none;" d="M216 225L218 227L215 238L222 236L223 236L228 239L228 238L225 231L231.484 238.411L246 239L241 223C237.49 223.38 235.244 223.484 234 227L224 226L224 223L216 225z"/>
<path style="fill:#9d7a6f; stroke:none;" d="M297 224C292.119 232.824 288.231 244.573 277 247L272 255L269 249L268 249L267 263L281 253L282 256L283 256L284 250L287 251L286 254L287 254C291.527 246.895 300.535 232.668 297 224z"/>
<path style="fill:#45322c; stroke:none;" d="M236 225L237 228C232.48 229.322 233.014 233.917 233 238L238 238C239.256 233.113 241.125 227.947 236 225M225 231C225.288 234.641 225.26 236.768 229 238C230.389 233.843 230.164 230.217 225 231z"/>
<path style="fill:#b5816c; stroke:none;" d="M198 240L212 233C207.1 231.002 197.895 234.108 198 240M196 239L189 252L183 252L184 248L179 249C186.504 264.233 196.614 250.09 196 239z"/>
<path style="fill:#bc8a77; stroke:none;" d="M224 240C226.916 244.127 233.972 243.977 237 240L224 240z"/>
<path style="fill:#533d36; stroke:none;" d="M294 242L282.156 262.625L272 277L264 275L265 279L259 274L258 274L257 283L258 283L261 280L263 288C269.281 286.674 272.015 281.774 274 276L276 278C280.804 268.973 296.192 252.598 294 242z"/>
<path style="fill:#6f5247; stroke:none;" d="M197 243L195 253L202 252L202 251L199 251L201 248L197 243z"/>
<path style="fill:#533d36; stroke:none;" d="M200 244L201 248L199 251L208 251L208 250L201 250L201 249C218.32 245.02 240.179 250.951 258 251C254.008 245.818 247.65 248.958 242 248.694C228.535 248.065 211.834 249.776 200 244z"/>
<path style="fill:#2d1e1b; stroke:none;" d="M201 249L201 250L209 250L209 248L201 249z"/>
<path style="fill:#cc9984; stroke:none;" d="M206 260L211 262C220.47 258.59 229.111 257.766 239 260L240 255C232.662 255.183 223.16 257.195 218 251L232 252C224.939 248.954 202.597 247.219 206 260z"/>
<path style="fill:#9d7a6f; stroke:none;" d="M199 252L196 264L202 268C202.112 272.698 207.018 280.743 212 281C216.289 287.69 222.729 288.716 230 289L230 285C232.396 285.575 232.487 285.475 233 283L237 282L239 285L238 282L244 279C249.096 281.624 252.254 273.825 254 270L258 265L251 268L251 263L232 261L232 262C247.086 262.355 237.27 267.943 236 276L235 276C232.182 273.038 228.758 276.017 226 278L217.111 271.75L213 264L217 263L217 262L206 260C205.341 256.005 206.048 254.202 210 253L210 251L199 252z"/>
<path style="fill:#d4ab9e; stroke:none;" d="M218 251C221.982 258.222 234.043 255.262 241 255C235.793 250.101 224.9 251.142 218 251z"/>
<path style="fill:#b5816c; stroke:none;" d="M233 251L233 252L241 254L239 260C229.95 257.136 220.927 258.19 212 261L212 262L251 263L249 265L249 266L251 268L261 263C254.572 250.983 246.085 251 233 251z"/>
<path style="fill:#7d5b4f; stroke:none;" d="M213 264L226 278L235 276C236.685 273.393 242.366 268.973 242.364 266.029C242.362 262.715 237.327 262.218 235.001 261.877C227.024 260.705 220.422 260.736 213 264z"/>
<path style="fill:#b5816c; stroke:none;" d="M161 262C158.714 276.267 171.811 293.904 178 306L194 319L195 319L196 315L197 317L198 317C197.304 308.975 190.277 303.911 185.5 297.961C176.775 287.093 171.235 271.314 161 262z"/>
<path style="fill:#533d36; stroke:none;" d="M226 270L227 273C229.774 271.444 234.356 270.904 235.914 267.871C238.772 262.306 227.128 261.757 224.113 262.832C218.75 264.743 221.754 269.737 226 270M174 278C175.795 284.83 186.879 295.574 193 299L194 293L186 287L187 281L195 278L195 285L198 284C200.642 292.149 213.542 292.726 221 295L213 290C212.189 286.236 206.265 286.3 203 287C201.871 281.335 198.945 277.452 193 277L194 274L174 278z"/>
<path style="fill:#393534; stroke:none;" d="M162 276C157.959 280.262 155.476 286.71 150.815 290.185C142.266 296.559 129.823 299.467 120 303.4C111.103 306.961 102.127 312.588 93 315.211C78.9935 319.236 64.5249 317.964 51.0903 325.573C41.5887 330.954 41.4556 342.236 35.412 349.772C32.8614 352.953 28.3769 353.341 25.6127 356.343C20.5191 361.876 19.1407 369.729 15.3873 376C11.5491 382.413 -12.2594 404.625 6.00077 410.046C8.58652 410.814 11.3349 410.779 14 411L14 407L13 403L8 401L7 396L23 405L24 405L22 400L25 400L25 399L23 397L25 396L25 395L22 394L24 392C19.905 383.484 20.8135 375.085 21 366L23 366C23.3955 373.328 29.9123 389.965 36 394L36 390L37 390L47 402L45 400C52.545 390.078 48.4169 376.327 49.0432 365C49.4337 357.939 52.2469 350.911 53.6289 344C54.8468 337.91 54.1373 331.494 59 327C58.9977 348.21 47.752 370.862 54 392L55 392L57 388L56 384L62 385L62 384L56 383L56 382L61 380L62 383L63 383C62.8908 379.916 64.5378 377.704 61 377L61 376L69 372L70 372L73 375L76 373L73 370L76 370L74 369L74 368L77 363L84 367C84 364.583 87.6093 361.598 89 364L90 364L91 361L93 366L94 366L93 363C97.9872 368.66 95.9749 375.248 95 382L89 381L92 385L87 389L93 388L93 389L86 391L86 392L89 393L92 402L88 403L91 406L91 404L100 406L102 403L101 400L102 398L105 403L110 407L112 412L117 409L118 408L116 403C119.764 405.287 121.927 405.93 126 404L122 400L121 397L126 396L125 393L130 393L127 389L135 392L140 391L138 388L143 385L144 377L145 377L148 381L147 377L149 377L148 375L159 361L159 360L156 360L156 359L162 358L163 355L165 356L169 354L162.17 296L162 276z"/>
<path style="fill:#996a59; stroke:none;" d="M274 276L244 312L243 312L242 310L239 317L227 324L224 322L225 325L207.458 319.736L198 311L199 309L178 286L198 317L197 317L196 315L195 319L194 319L179 305C180.676 312.305 193.864 334.54 202 334L194 321L217 329L218 329L220 327C223.34 333.146 236.521 325.857 241 324L238 326L236 330L236 331L239 331L239 332L236 332L230 344C238.851 341.92 238.698 336.597 243.259 330.424C251.762 318.917 262.05 306.958 268.219 294C270.769 288.644 276.499 282.001 274 276z"/>
<path style="fill:#ffffff; stroke:none;" d="M164 278C161.99 303.468 165.27 328.896 170 354L204 339L180.612 309L164 278z"/>
<path style="fill:#392824; stroke:none;" d="M187 281L186 287L194 293L192 295L193 300C200.873 301.247 207.859 308.479 216.285 310.42C234.809 314.686 257.222 303.739 266 287L263 288L261 280L258 283L254 280L253 280L257 284L251 288L248 284L247 290L244 288L240 293L228 294L227 291L221 295C213.519 291.687 201.77 292.039 198 284L195 285L195 278L187 281z"/>
<path style="fill:#533d36; stroke:none;" d="M252 283L245 283L245 287L235 292L240 293L244 288L247 290L248 284L251 288L257 284L254 284L253 280L254 280L255 282L255 278C251.964 279 251.506 279.863 252 283z"/>
<path style="fill:#b6b3b5; stroke:none;" d="M163 280L163 283L164 283L163 280z"/>
<path style="fill:#1a1819; stroke:none;" d="M273 283C277.2 316.201 269.252 345.277 267 378L270 382L273 384L274 384L279 364L282 361L283 361L282 365L285 369L288 365L305 368L305 366L315 366L313 362L321 361L322 361L324 364L322 365L323 366L326 365L324 368L330 369L329 366L332 370L337 370L333 377C334.807 382.787 333.571 388.08 333.571 394C333.57 415.643 328.198 437.244 321.989 458C319.091 467.687 318.922 477.703 309 483L310 494L306 496L308 500L308 501L305 502L303 523L302 525L300 525L300 534L298 534L296 539L299 539L299 542L297 541L294 544L297 547L297 548L294 548L294 549L287 554L287 553L289 551L282 558L275 555L268 558L264 545L264 544L266 544L266 543L266 540L263 541L263 537L262 537L261 539L262 536L259 532L262 531L260 525C262.523 523.583 261.458 522.517 259 522L259 521L261 520L259 520L259 519L261 519L261 518L258 518L258 517L262 516L260 506C255.008 509.236 257 518.636 257 524C257 541.69 259 559.276 259 577L374 577L375 560L377 560L384 577L433 577L433 448L432.686 408.17L417.199 381L411 370L394 392L390 394C388.922 380.517 410.513 376.203 405.436 361.015C404.108 357.044 400.194 355.304 398.085 351.896C393.433 344.38 394.247 334.271 385.96 328.894C380.899 325.61 370.988 324.336 365 322.576C342.42 315.936 317.815 312.335 297 300.576C288.464 295.753 280.772 291.912 276 283L273 283z"/>
<path style="fill:#a5a2a4; stroke:none;" d="M162 284L162 299L163 299L162 284z"/>
<path style="fill:#dcdada; stroke:none;" d="M272 285L245.565 331L225 349L240 345C240.981 349.556 244.221 346.742 247 345L247 344L247 343L245 338L271 351C271.174 329.957 281.228 305.555 272 285z"/>
<path style="fill:#a5a2a4; stroke:none;" d="M273 286L273 291L274 291L273 286z"/>
<path style="fill:#7d5b4f; stroke:none;" d="M181 287C182.179 295.074 192.087 304.959 199 309L198 311C207.873 318.699 212.322 321.875 225 325L224 322L227 324L239 317L242 310L243 312L244 312L252 302C235.791 309.178 217.188 317.194 200.209 305.14C192.967 300 188.271 291.608 181 287z"/>
<path style="fill:#525053; stroke:none;" d="M274 293L274 297L275 297L274 293z"/>
<path style="fill:#61473f; stroke:none;" d="M194 300L194 301L216 311L194 300z"/>
<path style="fill:#928e8f; stroke:none;" d="M264 301L263 304L264 301z"/>
<path style="fill:#a5a2a4; stroke:none;" d="M275 301L275 316L276 316L275 301z"/>
<path style="fill:#533d36; stroke:none;" d="M262 302L241 335C249.007 331.098 264.134 311.509 262 302z"/>
<path style="fill:#7b797b; stroke:none;" d="M163 303L163 310L164 310L163 303M262.333 304.667L262.667 305.333L262.333 304.667z"/>
<path style="fill:#676466; stroke:none;" d="M164 317L164 322L165 322L164 317z"/>
<path style="fill:#a87763; stroke:none;" d="M194 321C194 328.21 200.06 328.179 202 334C202.286 334.859 202.087 339.044 206 341C211.402 343.701 218.532 340.338 219 338L220 338L227 339L228 339L227 346L231 345L239 332L239 331L236 331L236 330L238 326L241 326L241 324C234.871 325.379 225.809 332.316 220 327L218 329L217 329L194 321z"/>
<path style="fill:#7b797b; stroke:none;" d="M165 324L165 328L166 328L165 324z"/>
<path style="fill:#1a1819; stroke:none;" d="M57 327C49.7278 344.207 51.3679 363.17 49.6998 381C49.1326 387.064 44.9753 396.568 47 402L37 390L36 390L36 394C30.3024 388.296 23.8741 374.106 23 366L21 366L20.3333 382L22 394L25 395L23 397L23 398L25 400L22 400L22 401L24 405L23 405C20.1552 400.534 12.1687 396.923 7 396L8 401L13 403L14 407L14 411L0 407L0 467C0 472.373 -2.23649 484.298 2 488L5 486L5 485L2 485L4 482L2 478L5 479C9.1522 474.64 14.4746 474.887 15 468L11 468L15 466L19 465L20 465L22 461L20 461L23 456L25 453L29 452L28 446L31 445L31 443L25 441C27.7553 439.073 29.1139 438.092 32 440L40 444C40.0597 440.251 41.0085 438.125 45 438C46.0962 430.729 42.3447 425.303 36 422L36 421C46.1105 422.688 43.3944 408.103 42 402L43 402L48 414C50.6638 421.475 52.9612 429.606 49 437L50.4259 465.715L53 487L57 488L57 492L57 493L62 493L59 494L59 495L67 500L70 503L70 506L70 507L65 507L65 508L71 510L71 515L75 514L74 518L70 518L72 517L71 520L70 525L75 525L79 530L79 545L74 550L77 552L74 553L77 554L77 555L75 556L78 565L81 564L80 570L76 569L77 574C79.5029 573.391 80.614 572.105 81 575L82 575L84 573L81 576L81 577L188 577C188 544.925 181.513 509.448 189 478C185.346 480.582 186.003 484.863 186 489L185 489L183 483L182 483L180 488L182 499L180 501L182 502L182 503L180 504L180 505C182.191 508.287 182.406 520.601 180 520L180 531L180 532L182 534L182 543L178 545C178.407 550.524 177.265 558.286 172 561L172 560L175 555C170.62 557.787 170.806 560.599 173 565L171 569L170 569L170 566L168 567L168 564L164 561L162 561L161 546L160 544L160 543C153.174 539.069 146.222 517.571 147 510C141.646 506.748 141.649 500.587 140.076 495C137.553 486.038 132.507 478.675 133 469L118 438L115 440L116 443L114 443L115 447L112 449L118 450L118 451C114.505 451.537 111.784 452.36 111 456L107 456L107 457L110 457L110 458L105 458L105 463L100 463L103 467C99.6632 466.294 98.0583 466.174 96 469L97 471L104 468L105 472L108 471L111 474L111 478L108 476L106 481L105 481L95 472L94 472L91 472L88 475L89 470L88 470L87 473L78 469L79 465L75 464L77 458L73 460L75 458L71 455L75 452L75 451L69 449L69 443L63 442L60 444L64 441L64 440L63 438L53 439L52.0039 418L53.0147 370L59 327L57 327z"/>
<path style="fill:#676466; stroke:none;" d="M166 331L166 336L167 336L166 331z"/>
<path style="fill:#525053; stroke:none;" d="M273 331L273 335L274 335L273 331z"/>
<path style="fill:#928e8f; stroke:none;" d="M272 337L272 340L273 340L272 337z"/>
<path style="fill:#7b797b; stroke:none;" d="M167 338L167 342L168 342L167 338z"/>
<path style="fill:#bc8a77; stroke:none;" d="M219 338L207 341L207 342L215 348L211 348L211 349C217.719 348.861 223.948 348.619 229 344L228 339L227 339L226 341L219 338z"/>
<path style="fill:#676466; stroke:none;" d="M245 338L245 343L248 343L248 347L249 347L251 339L245 338z"/>
<path style="fill:#b6b3b5; stroke:none;" d="M202 339C204.421 344.54 205.535 347.411 212 348L210 343L205 342L206 340L202 339z"/>
<path style="fill:#928e8f; stroke:none;" d="M200 340L204 345L200 340z"/>
<path style="fill:#1c1a1c; stroke:none;" d="M251 340L251 346C254.88 343.684 258.435 343.875 259 349L264 349C261.315 344.023 256.204 341.75 251 340z"/>
<path style="fill:#322f2f; stroke:none;" d="M194 343L205 347L201 341L194 343z"/>
<path style="fill:#f3f0ee; stroke:none;" d="M205 341L208 343L205 341z"/>
<path style="fill:#928e8f; stroke:none;" d="M254.667 341.333L255.333 341.667L254.667 341.333z"/>
<path style="fill:#525053; stroke:none;" d="M191.667 343.333L192.333 343.667L191.667 343.333z"/>
<path style="fill:#171517; stroke:none;" d="M191 344L191 345L203 347L191 344z"/>
<path style="fill:#b6b3b5; stroke:none;" d="M247 343C244.97 345.659 242.488 348.318 240 345L227 348L227 349C232.067 349 249.902 352.163 247 343z"/>
<path style="fill:#1d4371; stroke:none;" d="M252 346C247.531 346.37 244.426 349.87 240 350.437C224.112 352.472 204.771 348.124 189 346L189 350L190 350L195 351L213 350C214.127 352.006 214.873 352.006 216 350L219 350L220 353L222 350L225 350L231 354L231 355L226 362C229.528 362 228.811 365.063 226 366L226 367L229 367L225 373L225 374L231 374L231 375L225 378L225 379L229 379L229 380L223 382L228 381L228 382L226 385L218 393L218 397L221 396L221 397L218 398L218 399L221 399L221 400C216.018 400.966 210.362 403.287 206 400L205 400C204.854 417.426 195.944 436.971 191.87 454C189.9 462.233 187.333 474.01 193 481L189 480L191 500L189 500L188 505C190.158 505.978 190.501 506.188 189 508L190 510L188 512L191 514L188 515L188 518L190 521L190 522L192 522L192 523L188 525L192 527L188 529L188 530L192 529L191 533L194 533L194 534L194 537L194 538L188 539L188 540L193 539L194 542L191 543L191 550L191 551L194 553L192 552L192 553L190 557L190 558L194 555L195 555L191 561L195 562L193 567C196.734 568.867 197.548 571.887 194 571L197 573L197 574L194 574L194 575C206.899 581.712 231.541 577 246 577L244 574C247.208 570.504 247.644 556.184 244 553L244 552L246 542L244 514C246.006 512.873 246.006 512.127 244 511C246.125 502.528 245 492.683 245 484C245 464.162 243.921 444.646 240.996 425C239.626 415.794 234.207 406.159 233.994 397C233.633 381.476 250.456 357.934 263 350L263 349L259 349C258.805 344.681 255.076 342.118 252 346z"/>
<path style="fill:#928e8f; stroke:none;" d="M271.333 343.667L271.667 344.333L271.333 343.667z"/>
<path style="fill:#102748; stroke:none;" d="M189 344L188 350L189 350L189 346L207 349L189 344z"/>
<path style="fill:#e7e5e4; stroke:none;" d="M209 344L209 345L215 348L209 344z"/>
<path style="fill:#676466; stroke:none;" d="M168 345L168 349L169 349L168 345z"/>
<path style="fill:#7b797b; stroke:none;" d="M187 345L188 346L187 345z"/>
<path style="fill:#171517; stroke:none;" d="M182 352L188 351L188 346C184.153 346.785 181.934 347.894 182 352z"/>
<path style="fill:#676466; stroke:none;" d="M205 347L205 348L211 349L211 348L205 347z"/>
<path style="fill:#a5a2a4; stroke:none;" d="M181 348L182 349L181 348z"/>
<path style="fill:#386ba1; stroke:none;" d="M190 348L185 351L185 352L198 354L198 355L196 355L196 356L201 356L201 357L198 357L199 363L204 371L207 370L210 374L208 378L209 378L210 376L208 381L210 385L214 395L214 396L212 398L221 397L221 396L218 397L220 394L217 391L220 389L217 387C218.055 382.194 217.908 378.847 223 377L223 376L218 374L218 373L222 372L220 367L216 367L216 366L220 360L217 355L220 357L213 350L195 351L190 348z"/>
<path style="fill:#917065; stroke:none;" d="M217 348L217 349L225 349L217 348z"/>
<path style="fill:#423d3c; stroke:none;" d="M264 348L259 353L265 358L266 358L270 357L271 351L264 348z"/>
<path style="fill:#525053; stroke:none;" d="M180 349C174.545 352.23 170.227 354.142 170 361L171 361L177 355L177 359L182 360L180 349z"/>
<path style="fill:#928e8f; stroke:none;" d="M231 349L231 350L241 350L231 349z"/>
<path style="fill:#676466; stroke:none;" d="M241 349L237 350L237 351L241 349z"/>
<path style="fill:#2c5a8e; stroke:none;" d="M216 350L216 354L220 357L217 355C216.717 358.081 216.97 359.144 220 360L216 366L216 367L220 367L222 372L218 373L218 374L223 376L223 377C216.395 378.411 216.338 384.266 220 389L217 391L223 392L226 385L228 382L228 381L223 382L229 380L229 379L225 379L225 378L231 375L231 374L225 374L225 373C228.275 371.693 230.68 368.003 226 367L226 366L229 366L226 362L231 355L231 354L225 350L222 350L220 353L219 350L216 350z"/>
<path style="fill:#a5a2a4; stroke:none;" d="M169.333 351.667L169.667 352.333L169.333 351.667z"/>
<path style="fill:#224c7d; stroke:none;" d="M183 351L189 355L190 357L190 358L188 358L188 359L190 362L191 364L193 368L198 372L201 376L203 387L204 389L205 390L207 389L208 398L208 399L213 399L214 396L214 395L210 385L208 381L210 376L209 378L208 378L210 374L207 370L204 371C203.923 367.579 202.699 363.412 199 363L201 357L201 356L196 356L196 355L198 355L198 354L183 351z"/>
<path style="fill:#1a3459; stroke:none;" d="M182 352C184.425 370.525 205.59 382.224 206 402L221 400L221 399L208 399L208 398L210 397L207 389L204 389L205 387L203 387L201 376L198 372L193 368L191 364C193.334 362.985 191.91 362.579 190 362L188 359L190 357L189 355L182 352z"/>
<path style="fill:#7b797b; stroke:none;" d="M169 353L172 355L172 354L169 353z"/>
<path style="fill:#d0ced0; stroke:none;" d="M257 353L235 389L248 371L249 371C245.213 379.32 233.088 388.632 233.669 398C234.14 405.601 241.118 410.468 242 417L244 425L245 427L247 427C246.069 429.792 245.123 430.425 248 431L248 432L246 432L246 433L249 437L249 438L247 438L247 439L251 442C249.619 431.08 242.664 415.667 246 405L246 404L245 396L247 398L248 398L249 392L250 392L251 396L252 396L255 389L258 386L261 386L260 427L261 427L265 374C261.101 374 262.881 369.852 263 367C263.285 360.152 266.536 353 257 353z"/>
<path style="fill:#262425; stroke:none;" d="M165 356L163 355L162 358L156 359L156 360L159 360L159 361C154.008 363.805 149.317 371.208 149 377L147 377L148 381L145 377L144 377L143 385L138 388L140 391L135 392L127 389L130 393L125 393L126 396L121 397L122 400L126 404L116 403L118 408L117 409C113.908 408.478 112.86 408.919 112 412L110 407L105 403C105.287 399.992 104.967 398.866 102 398L101 400L102 403L100 406L91 404L91 406L88 403L92 402L89 393L86 392L86 391L93 389L93 388L87 389L92 385L89 381L95 382C96.3708 375.989 98.86 367.399 93 363L94 366L93 366L91 361L90 364L89 364L88 362L84 367L77 363L74 369L76 370L73 370L76 373L73 375L70 372L69 372L61 376L61 377L64 377L62 379L63 383L62 383L61 380L56 382L56 383L62 384L62 385L56 384L57 388L55 392L53 391L53 439L63 438L64 440L64 441L60 444L63 442L69 443L69 449L75 451L75 452L71 455L75 458L73 460L77 458L75 460L75 464L79 465L78 469L87 473L88 470L89 470L88 475L91 472L94 472L95 472L105 481L106 481L108 476L111 478L111 474L108 471L105 472L104 468L97 471L96 469L103 467L100 463L105 463L105 458L110 458L110 457L107 457L107 456L111 456L118 451L118 450L112 449L115 447L114 443L116 443L115 440L118 438C121.413 446.196 125.292 464.625 133 469C131.423 479.082 137.941 487.625 140.334 497C141.616 502.023 141.665 507.877 147 510C145.568 516.698 153.137 540.62 160 543L160 544L158 545L161 546L162 561L164 561L163 563L168 567L170 566L170 569L171 569L173 565C171.346 560.331 171.206 558.484 175 555L172 560L172 561C177.715 559.082 179.113 550.34 178 545L182 543L182 534L180 532L180 531C182.751 527.455 181.433 523.943 180 520C183.385 519.447 181.757 507.32 180 505L180 504L182 503L182 502L180 501L180 500L182 499L180 488L182 483L183 483L185 489C188.083 481.65 182.93 468.95 182.17 461C179.747 435.663 177.857 410.219 174.424 385C173.331 376.977 172.163 368.954 170.61 361.001C170.022 357.985 168.572 352.061 165 356z"/>
<path style="fill:#676466; stroke:none;" d="M256.333 354.667L256.667 355.333L256.333 354.667z"/>
<path style="fill:#a5a2a4; stroke:none;" d="M175 393L176 393L176 389L177 389L178 391C179.338 385.859 179.163 372.582 175 369L175 361L183 374L184 374L186 361C180.664 362.705 176.469 361.286 177 355C165.103 356.897 174.821 384.338 175 393z"/>
<path style="fill:#7b797b; stroke:none;" d="M264 355C263.869 359.197 259.841 373.283 265 374L265 383L266 383L269 356L266 358L265 358L264 355z"/>
<path style="fill:#676466; stroke:none;" d="M176 356C176.848 361.432 179.769 363.071 185 362L182 357C179.862 359.637 178.142 358.091 176 356z"/>
<path style="fill:#c3c2c5; stroke:none;" d="M175 361L175 369C179.912 373.003 176.722 388.506 177 389L176 389L184 478L185 478C185.063 470.421 185.906 454.102 193 450L196 429L195 429L190 445C187.262 427.212 185.965 408.527 182.182 391C180.727 384.259 175.916 373.327 180 367L180 366L175 361z"/>
<path style="fill:#232122; stroke:none;" d="M282 361L279 364L274 384L273 384L270 382L267 378L267 368L266 368L257 507L260 506L262 516L258 517L258 518L261 518L261 519L259 520L261 520L261 521L259 521L259 522C261.158 522.978 261.501 523.188 260 525L262 531L259 532L262 536L261 539L262 537L263 537L263 541L266 540L266 543L266 544L264 544L264 545L268 558L275 555L282 558L289 551L287 553L287 554C289.15 553.666 297.225 551.426 294 549L294 548L297 548L297 547L294 544L299 542L299 539L296 539L299 538L298 534L300 534L300 525L302 525L303 523L308 501L308 500L306 496L310 494L309 483C319.279 479.376 319.308 467.964 321.989 459C327.951 439.07 334.362 416.916 333.884 396C333.741 389.703 335.819 382.76 333 377L337 370L332 370L329 366L330 369L324 368L326 365L322 365L324 364L324 363L322 361L321 361L313 362L315 366L305 366L305 368L288 365L285 369L282 365L282 361z"/>
<path style="fill:#f3f0ee; stroke:none;" d="M187 365L184 374L183 374L178 367L183.714 401L190 445C194.55 441.798 194.046 434.121 195 429L196 429L196 432L197 432C198.674 426.766 197.713 413.758 203 412C209.326 396.262 199.39 375.265 187 365z"/>
<path style="fill:#676466; stroke:none;" d="M190.333 367.667L190.667 368.333L190.333 367.667z"/>
<path style="fill:#7b797b; stroke:none;" d="M248 371L235 391C239.975 387.184 249.003 377.739 248 371z"/>
<path style="fill:#928e8f; stroke:none;" d="M193 373L194 374L193 373z"/>
<path style="fill:#b6b3b5; stroke:none;" d="M201.333 385.667L201.667 386.333L201.333 385.667z"/>
<path style="fill:#dcdada; stroke:none;" d="M258 386L255 389L252 396L251 396L250 392L249 392L248 398L247 398L245 396L246 404L246 405C240.491 413.605 250.805 430.251 250.123 439.999C246.955 485.268 252 531.519 252 577L256 577L257.039 464L261 386L258 386z"/>
<path style="fill:#423d3c; stroke:none;" d="M264 390L264 398L265 398L264 390z"/>
<path style="fill:#676466; stroke:none;" d="M204 391L204 394L205 394L204 391z"/>
<path style="fill:#525053; stroke:none;" d="M175 393L175 397L176 397L175 393z"/>
<path style="fill:#676466; stroke:none;" d="M205 395L205 399L206 399L205 395z"/>
<path style="fill:#040404; stroke:none;" d="M42 402C42.9422 408.438 45.7591 421.398 36 421L36 422C41.6908 426.351 45.2804 430.593 45 438C40.6144 437.84 39.45 439.789 40 444L32 440C29.5723 437.278 27.2663 438.685 25 441L31 443L31 445L28 446L30 448L29 452L25 453L23 456L20 461L22 461L20 465L19 465L18 463L15 466L11 468L15 468L5 479L2 478L4 482C1.48768 483.357 2.52405 484.605 5 485L5 486L1 486L0 577L62 577C68.7681 577 79.8448 579.394 84 573L82 575L81 575L80 572L77 574L76 569L80 570L81 564L78 565L77 555L77 554L74 553L77 552L74 550L79 545L79 530L75 525L70 525L73 524L71 520L72 517L70 518L74 518L75 514L71 515L71 510L69 508L65 508L65 507L70 507L70 506L70 503L67 500L59 495L59 494L62 493L57 493L57 492L59 491L57 488L53 487L50.7438 451.675L49 437C53.734 430.783 51.1206 420.491 48 414C50.7349 410.41 44.7941 404.396 42 402z"/>
<path style="fill:#a5a2a4; stroke:none;" d="M204 402L204 406L205 406L204 402z"/>
<path style="fill:#676466; stroke:none;" d="M263 402L263 406L264 406L263 402z"/>
<path style="fill:#525053; stroke:none;" d="M177 409L177 413L178 413L177 409z"/>
<path style="fill:#7b797b; stroke:none;" d="M262 410L262 414L263 414L262 410z"/>
<path style="fill:#c3c2c5; stroke:none;" d="M201 411L200 421C202.076 417.696 203.322 414.352 201 411M238 412C250.151 465.132 250 522.825 250 577L252 577C252 536.925 250 488.877 250 458C250 452.932 251.111 439.822 247 439L247 438L249 438L249 437L246 433L246 432L248 432L248 431L247 427L245 427L244 425L242 417C241.862 413.797 241.06 412.959 238 412z"/>
<path style="fill:#525053; stroke:none;" d="M262 414L262 420L263 420L262 414z"/>
<path style="fill:#676466; stroke:none;" d="M178 416L178 421L179 421L178 416z"/>
<path style="fill:#7b797b; stroke:none;" d="M239.333 417.667L239.667 418.333L239.333 417.667z"/>
<path style="fill:#525053; stroke:none;" d="M261 420L260 432L261 432L261 420z"/>
<path style="fill:#928e8f; stroke:none;" d="M199 423L199 426L200 426L199 423z"/>
<path style="fill:#676466; stroke:none;" d="M179 426L179 431L180 431L179 426M241.333 427.667L241.667 428.333L241.333 427.667M242 432L242 437L243 437L242 432z"/>
<path style="fill:#7b797b; stroke:none;" d="M259 435L259 439L260 439L259 435z"/>
<path style="fill:#676466; stroke:none;" d="M180 436L180 440L181 440L180 436M243 440L243 447L244 447L243 440z"/>
<path style="fill:#525053; stroke:none;" d="M181 446L181 452L182 452L181 446z"/>
<path style="fill:#928e8f; stroke:none;" d="M258 446L258 450L259 450L258 446z"/>
<path style="fill:#7b797b; stroke:none;" d="M190 450L188 459L189 459L193 450L190 450z"/>
<path style="fill:#676466; stroke:none;" d="M258 450L258 454L259 454L258 450M244 454L244 458L245 458L244 454M182 456L182 464L183 464L182 456z"/>
<path style="fill:#525053; stroke:none;" d="M189 457L184 480C189.929 477.915 190.247 462.828 191 457L189 457z"/>
<path style="fill:#928e8f; stroke:none;" d="M257 459L257 465L258 465L257 459z"/>
<path style="fill:#102748; stroke:none;" d="M189 465L188 577L196 577L194 575L194 574L197 574L197 573L194 571C197.606 570.487 195.147 568.054 193 567L195 562L191 561L195 555L194 555L194 558L190 558L190 557L193 557L192 552L194 553L191 551L191 550C193.48 547.839 192.812 545.488 191 543L194 542L193 539L188 540L188 539L194 538L194 537L192 536L194 533L191 533L191 532L192 529L188 530L188 529L192 527L188 525L192 523L190 521C192.079 519.436 189.938 518.736 188 518C190.37 516.104 190.37 516.896 188 515L191 514L188 512L190 510L189 508C191.523 506.583 190.458 505.517 188 505L189 500L191 500L189 480L193 481L190 479L189 465z"/>
<path style="fill:#676466; stroke:none;" d="M257 465L257 470L258 470L257 465z"/>
<path style="fill:#7b797b; stroke:none;" d="M183 468L183 472L184 472L183 468M185 470L185 474L186 474L185 470M245 475L245 481L246 481L245 475M256 479L256 517L257 517C257 506.089 260.211 489.036 256 479z"/>
<path style="fill:#423d3c; stroke:none;" d="M245 481L244 511C248.416 507.141 247.23 486.315 245 481z"/>
<path style="fill:#7b797b; stroke:none;" d="M246 489L248 577L249 577L248.692 516.04L246 489z"/>
<path style="fill:#676466; stroke:none;" d="M246 507L247 577L248 577L247.09 527L246 507z"/>
<path style="fill:#322f2f; stroke:none;" d="M244 514L245 521L246 521L244 514z"/>
<path style="fill:#b6b3b5; stroke:none;" d="M256 517L256 577L257 577L257 536L256 517z"/>
<path style="fill:#928e8f; stroke:none;" d="M249 520L249 577L250 577L250 538L249 520z"/>
<path style="fill:#a5a2a4; stroke:none;" d="M250 528L250 563L251 563L250 528z"/>
<path style="fill:#525053; stroke:none;" d="M246 532L244 552L244 553C247.23 557.264 247.302 569.679 244 574L247 577C247 564.258 250.91 543.701 246 532M257 536L258 577L259 577C259 565.285 261.51 546.749 257 536M375 560L374 577L377 573C375.225 570.406 375.903 569.228 378 567L375 566L377 560L375 560z"/>
<path style="fill:#7b797b; stroke:none;" d="M257 561L257 577L258 577L257 561z"/>
<path style="fill:#888485; stroke:none;" d="M375 562L375 566C379.12 567.238 381.289 568.632 382 573L384 573C383.8 566.836 381.171 563.246 375 562z"/>
<path style="fill:#676466; stroke:none;" d="M375 568L377 573L376 577L384 577C383.217 571.085 381.425 567.149 375 568z"/>
</svg>
